<?xml version="1.0" encoding="UTF-8" standalone="no"?>
<!-- Created with Inkscape (http://www.inkscape.org/) -->

<svg
   width="48mm"
   height="48mm"
   viewBox="0 0 48 48.000003"
   version="1.1"
   id="svg1"
   inkscape:version="1.3.2 (091e20e, 2023-11-25, custom)"
   sodipodi:docname="logo-iconxtext.svg"
   inkscape:export-filename="iconxtext.png"
   inkscape:export-xdpi="1676.2603"
   inkscape:export-ydpi="1676.2603"
   xmlns:inkscape="http://www.inkscape.org/namespaces/inkscape"
   xmlns:sodipodi="http://sodipodi.sourceforge.net/DTD/sodipodi-0.dtd"
   xmlns="http://www.w3.org/2000/svg"
   xmlns:svg="http://www.w3.org/2000/svg">
  <sodipodi:namedview
     id="namedview1"
     pagecolor="#ffffff"
     bordercolor="#000000"
     borderopacity="0.25"
     inkscape:showpageshadow="2"
     inkscape:pageopacity="0.0"
     inkscape:pagecheckerboard="0"
     inkscape:deskcolor="#d1d1d1"
     inkscape:document-units="mm"
     inkscape:zoom="2.0062928"
     inkscape:cx="153.76619"
     inkscape:cy="83.487315"
     inkscape:window-width="1920"
     inkscape:window-height="1057"
     inkscape:window-x="-8"
     inkscape:window-y="-8"
     inkscape:window-maximized="1"
     inkscape:current-layer="layer1"
     showgrid="false" />
  <defs
     id="defs1" />
  <g
     inkscape:label="Layer 1"
     inkscape:groupmode="layer"
     id="layer1">
    <rect
       style="fill:#000000;stroke-width:0.890469"
       id="rect1"
       width="48"
       height="48"
       x="0"
       y="2.7755576e-17" />
    <path
       id="text1"
       style="font-size:5.96838px;font-family:'Square Space';-inkscape-font-specification:'Square Space';fill:#ffffff;stroke-width:0.497364"
       d="m 6,21 v 0.459403 4.668966 0.326595 h 0.367936 3.995622 5.17e-4 v -0.459403 h -5.17e-4 v -4.667932 l 5.17e-4,-5.17e-4 V 21 h -5.17e-4 z m 0.367936,0.459403 h 3.366203 l -3.366203,4.208529 v -0.482658 z m 11.477853,0.222726 v 0.33693 h 3.734139 l -3.628202,3.325895 -0.105937,0.09715 v 0.239778 h 4.363557 v -0.336931 h -3.733622 l 3.733622,-3.423046 v -0.239779 z m 6.545853,0 v 1.828312 0.343132 1.828312 H 28.7552 v -0.336931 h -0.367936 -0.648539 -2.979664 v -1.491381 h 3.485059 v -0.343132 h -3.485059 v -1.491382 h 2.979664 0.648539 0.367936 v -0.33693 z m 6.545337,0 v 3.999756 h 0.36742 v -0.336931 -0.594279 -0.897102 h 1.477429 l 1.995227,1.828312 h 0.523482 l -1.99471,-1.828312 h 1.626773 0.367937 v -0.343132 -1.828312 z m 6.545338,0 v 3.999756 h 0.367935 3.627686 0.367936 V 21.682129 Z M 9.995622,21.788066 v 3.397208 0.810287 H 6.629419 Z m 21.308777,0.230993 H 34.9326 v 1.491382 h -3.628201 z m 6.545853,0 h 3.627686 v 2.731616 0.594279 h -3.627686 v -0.594279 z m -25.047566,0.806153 -0.255282,0.234094 1.302763,1.194242 -1.302763,1.194243 0.255282,0.234094 1.302762,-1.194243 1.30328,1.194243 0.255282,-0.234094 -1.302763,-1.194243 1.302763,-1.194242 -0.255282,-0.234094 -1.30328,1.194242 z" />
  </g>
</svg>
