<?xml version="1.0" encoding="UTF-8" standalone="no"?>
<!-- Created with Inkscape (http://www.inkscape.org/) -->

<svg
   width="36mm"
   height="36mm"
   viewBox="0 0 36 36"
   version="1.1"
   id="svg1"
   inkscape:version="1.3.2 (091e20e, 2023-11-25, custom)"
   sodipodi:docname="logo-bg.svg"
   inkscape:export-filename="logo-bg.png"
   inkscape:export-xdpi="508"
   inkscape:export-ydpi="508"
   xmlns:inkscape="http://www.inkscape.org/namespaces/inkscape"
   xmlns:sodipodi="http://sodipodi.sourceforge.net/DTD/sodipodi-0.dtd"
   xmlns="http://www.w3.org/2000/svg"
   xmlns:svg="http://www.w3.org/2000/svg">
  <sodipodi:namedview
     id="namedview1"
     pagecolor="#ffffff"
     bordercolor="#000000"
     borderopacity="0.25"
     inkscape:showpageshadow="2"
     inkscape:pageopacity="0.0"
     inkscape:pagecheckerboard="0"
     inkscape:deskcolor="#d1d1d1"
     inkscape:document-units="mm"
     inkscape:zoom="1.9893244"
     inkscape:cx="73.643092"
     inkscape:cy="55.043813"
     inkscape:window-width="1920"
     inkscape:window-height="1057"
     inkscape:window-x="-8"
     inkscape:window-y="-8"
     inkscape:window-maximized="1"
     inkscape:current-layer="layer1" />
  <defs
     id="defs1" />
  <g
     inkscape:label="Layer 1"
     inkscape:groupmode="layer"
     id="layer1">
    <rect
       style="fill:#000000;stroke-width:0.264583;fill-opacity:1"
       id="rect1"
       width="36"
       height="36"
       x="0"
       y="0" />
    <path
       style="font-size:5.96838px;font-family:'Square Space';-inkscape-font-specification:'Square Space';stroke-width:0.497364;fill:#ffffff"
       d="m 10.363641,16 v 0.24 l -3.73403,3.422857 h 3.73403 V 20 H 6 V 19.76 L 6.105974,19.66286 9.73403,16.337146 H 6 V 16 Z m 6.545456,0 v 0.337143 h -0.367792 -0.648312 -2.979744 v 1.491428 h 3.484679 v 0.342858 h -3.484679 v 1.491428 h 2.979744 0.648312 0.367792 V 20 h -4.36364 V 18.171429 17.828571 16 Z m 6.545458,0 v 1.828571 0 0.342858 0 H 23.086762 21.459747 L 23.454555,20 H 22.930918 L 20.93611,18.171429 H 19.458706 V 19.068571 19.662857 20 h -0.367792 v -4 z m -3.995849,1.828571 h 3.628056 V 16.337143 H 19.458706 Z M 30.000011,16 v 4 h -0.367793 v 0 h -3.628056 v 0 H 25.63637 v -4 z m -3.995849,3.662857 h 3.628056 v -0.594286 -2.731428 h -3.628056 v 2.731428 z"
       id="text1"
       aria-label="Z E R O" />
  </g>
</svg>
